<?xml version="1.0" standalone="no"?>
<!DOCTYPE svg PUBLIC "-//W3C//DTD SVG 20010904//EN"
 "http://www.w3.org/TR/2001/REC-SVG-20010904/DTD/svg10.dtd">
<svg version="1.0" xmlns="http://www.w3.org/2000/svg"
 width="457.000000pt" height="440.000000pt" viewBox="0 0 457.000000 440.000000"
 preserveAspectRatio="xMidYMid meet">

<g transform="translate(0.000000,440.000000) scale(0.100000,-0.100000)"
fill="#3563E9" stroke="none">
<path d="M1590 3480 c-4 -56 -8 -66 -29 -76 l-24 -12 24 -5 24 -4 -23 -8 c-16
-5 -21 -13 -17 -25 4 -12 -1 -19 -15 -23 -27 -7 -25 -15 12 -71 l31 -48 -7
-246 c-8 -320 -17 -482 -26 -482 -4 0 -5 11 -2 25 6 34 -8 38 -162 39 l-131 1
-3 84 c-2 55 -8 88 -17 97 -11 11 -41 14 -131 12 l-118 -3 3 -67 c2 -62 1 -68
-17 -68 -11 0 -22 -9 -25 -21 -4 -13 -12 -19 -24 -18 -10 2 -32 -3 -50 -11
-28 -13 -33 -20 -38 -65 -4 -28 -5 -64 -3 -80 l3 -30 1283 -2 1282 -3 0 49 c0
27 -6 66 -14 87 -7 22 -16 60 -20 87 -7 44 -9 47 -37 47 -16 0 -29 -4 -29 -8
0 -5 -10 -13 -22 -19 -20 -9 -23 -17 -23 -74 l0 -64 -44 2 c-24 1 -45 4 -48 6
-2 3 -6 80 -9 173 -2 93 -6 234 -9 314 -3 80 -5 162 -5 183 0 20 -3 37 -7 37
-5 0 -7 -161 -5 -357 2 -197 0 -355 -3 -351 -3 3 -8 104 -11 224 -2 121 -6
280 -9 354 -2 74 -4 141 -5 149 0 8 -3 11 -7 8 -3 -4 -7 -170 -7 -369 -1 -235
-5 -363 -11 -363 -5 0 -10 23 -10 50 l0 50 -37 3 c-26 2 -38 -1 -39 -10 -1 -7
-3 -28 -5 -46 -5 -61 -3 -60 -128 -61 l-116 -1 0 54 c0 58 -8 67 -53 59 -22
-4 -27 -11 -27 -37 0 -31 -1 -31 -44 -28 -36 3 -43 7 -39 22 7 27 -27 43 -61
27 -21 -10 -26 -19 -26 -51 l0 -38 -42 6 c-36 5 -95 12 -130 15 -5 1 -8 14 -8
30 0 24 -5 29 -31 35 -54 11 -69 8 -69 -14 0 -13 -7 -20 -20 -20 -10 0 -23 -7
-28 -16 -17 -30 -32 -4 -32 52 0 45 -3 54 -18 54 -31 0 -72 -24 -72 -42 0 -11
-8 -18 -20 -18 -13 0 -22 -9 -26 -25 -4 -18 -13 -25 -29 -25 -13 0 -30 -7 -39
-15 -18 -18 -39 -19 -83 -3 -25 9 -40 9 -66 0 -34 -12 -123 -19 -132 -10 -3 3
-10 163 -16 357 l-10 352 36 65 c34 63 35 66 15 71 -23 6 -25 14 -8 31 9 9 7
12 -10 12 -26 0 -29 17 -4 23 13 3 10 6 -10 11 -26 8 -27 12 -30 74 l-4 67 -4
-65z m-492 -872 c2 -61 -13 -98 -22 -57 -3 13 -4 38 -2 54 2 17 4 36 5 43 0 6
5 12 9 12 5 0 10 -24 10 -52z"/>
<path d="M743 2043 c-10 -4 -13 -94 -13 -404 l0 -399 65 0 65 0 0 405 0 405
-52 -1 c-29 0 -59 -3 -65 -6z"/>
<path d="M1047 2043 c-4 -3 -7 -186 -7 -405 l0 -398 72 0 71 0 -7 293 c-5 186
-4 288 2 282 6 -5 49 -71 96 -145 47 -74 128 -201 181 -282 l95 -148 55 0 55
0 -2 403 -3 402 -60 0 -60 0 0 -282 c0 -214 -3 -279 -12 -270 -6 7 -91 131
-188 277 -98 146 -183 268 -189 272 -14 10 -90 10 -99 1z"/>
<path d="M1847 2044 c-4 -4 -7 -187 -7 -406 l0 -398 70 0 70 0 0 180 0 179
128 3 127 3 11 45 11 45 -139 3 -138 3 0 124 0 125 168 2 167 3 0 45 0 45
-231 3 c-127 1 -233 -1 -237 -4z"/>
<path d="M2438 2044 c-5 -4 -8 -187 -8 -406 l0 -399 68 3 67 3 3 173 2 172 43
0 c93 0 133 -45 227 -252 l44 -98 68 0 c37 0 68 3 68 8 0 10 -81 198 -109 250
-12 24 -41 64 -63 88 -23 25 -39 46 -37 48 2 2 23 13 46 25 62 31 93 89 93
173 0 94 -28 144 -105 183 -57 29 -62 30 -229 33 -94 2 -174 0 -178 -4z m300
-104 c96 -44 99 -195 4 -233 -36 -14 -156 -26 -166 -16 -4 4 -9 150 -7 227 l1
42 63 0 c40 0 77 -7 105 -20z"/>
<path d="M3383 2042 c-11 -7 -313 -774 -313 -794 0 -5 29 -8 64 -8 l63 0 38
104 37 105 131 3 c73 2 142 2 154 0 18 -3 28 -21 56 -105 l34 -102 71 -3 c40
-2 72 -1 72 2 0 2 -21 58 -46 123 -25 65 -68 177 -95 248 -28 72 -59 150 -69
175 -10 25 -36 90 -57 145 -20 55 -42 103 -48 107 -13 10 -77 10 -92 0z m103
-324 c30 -90 54 -164 54 -165 0 -2 -52 -3 -116 -3 -89 0 -115 3 -111 13 2 6
28 83 57 170 29 87 54 156 57 153 3 -3 29 -78 59 -168z"/>
<path d="M912 1028 c-16 -40 -37 -90 -46 -110 -13 -31 -14 -38 -2 -38 7 0 19
14 26 30 11 27 17 30 57 30 41 0 46 -3 56 -30 6 -16 17 -30 24 -30 7 0 13 1
13 3 0 4 -90 211 -94 214 -2 2 -17 -29 -34 -69z m52 -27 c17 -32 13 -41 -21
-41 -25 0 -30 19 -13 51 14 25 17 24 34 -10z"/>
<path d="M1440 990 l0 -110 71 0 c52 0 70 3 66 13 -2 7 -22 12 -50 12 -25 1
-49 4 -53 7 -3 4 -6 48 -5 98 2 75 -1 90 -14 90 -13 0 -15 -18 -15 -110z"/>
<path d="M1960 990 l0 -110 70 0 c56 0 70 3 70 15 0 8 -3 14 -7 14 -5 -1 -29
-1 -54 0 -50 1 -62 13 -52 50 4 18 13 21 54 21 27 0 49 5 49 10 0 6 -22 10
-49 10 -44 0 -49 3 -53 24 -7 37 4 47 57 49 28 1 50 7 53 15 3 9 -15 12 -67
12 l-71 0 0 -110z"/>
<path d="M2510 990 c0 -85 3 -110 13 -110 9 0 14 13 15 36 1 20 4 39 6 42 13
13 52 -11 65 -38 13 -31 36 -48 48 -37 3 3 -5 20 -18 38 -22 31 -22 33 -6 61
39 67 6 118 -75 118 l-48 0 0 -110z m98 68 c28 -28 2 -71 -44 -74 -22 -1 -24
3 -24 43 0 40 2 43 28 43 15 0 33 -5 40 -12z"/>
<path d="M3020 1085 c0 -9 6 -15 13 -14 35 4 37 -1 37 -96 0 -78 3 -95 15 -95
12 0 15 17 15 95 0 69 3 95 13 96 6 1 18 2 26 3 8 0 16 7 18 14 4 9 -14 12
-66 12 -57 0 -71 -3 -71 -15z"/>
<path d="M3531 993 c-23 -54 -41 -101 -41 -105 0 -19 21 -5 35 22 14 27 21 30
60 30 30 0 45 -4 45 -13 0 -18 27 -53 35 -45 4 3 -7 37 -23 75 -16 37 -35 83
-42 101 -7 17 -16 32 -20 32 -4 0 -26 -44 -49 -97z m68 6 c6 -18 11 -34 11
-35 0 -2 -13 -4 -30 -4 -16 0 -30 2 -30 4 0 14 24 66 30 66 4 0 13 -14 19 -31z"/>
</g>
</svg>
